<svg xmlns="http://www.w3.org/2000/svg" width="256" height="256"><path fill-opacity=".016" d="M0 128.004v128.004l128.25-.254 128.25-.254.254-127.75L257.008 0H0v128.004m.485.496c0 70.4.119 99.053.265 63.672.146-35.38.146-92.98 0-128C.604 29.153.485 58.1.485 128.5" fill="#212121" fill-rule="evenodd"/><path fill-opacity=".227" d="M167.721 19.567a51.33 51.33 0 0 0-22.092 11.576L140.179 36h-9.013c-4.957 0-11.239.514-13.959 1.142-4.826 1.114-5.093 1.051-10.955-2.567-11.584-7.151-26.404-9.508-38.884-6.185-30.537 8.131-43.157 41.945-23.722 63.562 4.2 4.671 4.364 5.048 2.197 5.052-3.912.006-8.443 3.537-10.808 8.423-2.752 5.686-3.851 16.92-2.91 29.745.879 11.974 3.046 20.328 7.889 30.413 7.268 15.133 17.251 23.214 29.85 24.163 5.206.393 7.852 1.229 12.281 3.885 11.562 6.932 25.587 11.79 38.043 13.178l6.189.689.361 6.839c.217 4.131-.086 7.376-.767 8.196-.62.746-6.457 3.431-12.971 5.965-11.762 4.575-14.765 6.453-13.527 8.456.993 1.607 5.629 1.245 11.964-.934 5.073-1.746 5.923-1.804 7.228-.5 2.016 2.016 2.952 1.913 13.585-1.493l9.275-2.971 8.98 2.471c12.955 3.564 18.859 3.079 15.331-1.26-1.153-1.418-1.103-1.556.363-1.007 3.946 1.478 16.79 3.68 18.233 3.126 2.73-1.048 1.701-3.434-2.182-5.06-2.062-.864-7.987-2.843-13.165-4.4-5.178-1.556-9.985-3.414-10.681-4.129-.697-.714-1.571-4.464-1.943-8.332l-.677-7.034 5.858-1.834c14.568-4.56 26.541-11.836 36.188-21.989 2.932-3.086 5.987-5.61 6.79-5.61 2.66 0 8.827-3.775 12.524-7.665 7.663-8.065 11.203-19.36 11.23-35.835.02-11.976-1.375-19.458-4.962-26.62-2.298-4.589-7.492-9.866-9.739-9.895-.645-.009-1.812-.42-2.593-.914-1.129-.715-.474-1.952 3.205-6.043 15.42-17.151 15.138-40.263-.69-56.475-11.46-11.737-29.707-16.903-45.874-12.986m-.023 2.467c-12.246 3.081-23.742 12.149-28.917 22.811-2.938 6.054-3.232 7.515-3.255 16.173-.024 8.709.245 10.068 3.169 16.01 4.204 8.545 11.041 15.235 20.193 19.76 6.657 3.291 8.349 3.691 17.113 4.043 15.808.635 26.877-3.611 36.494-13.999 7.122-7.692 9.887-14.74 9.937-25.332.025-5.108-.59-9.808-1.701-13-3.545-10.193-13.602-20.206-24.65-24.542-6.329-2.484-21.949-3.543-28.383-1.924M72 30.017c-9.012 1.567-15.914 4.971-22.42 11.057-14.048 13.142-16.338 31.285-5.892 46.685 17.35 25.576 61.019 22.912 74.525-4.546 3.027-6.153 3.285-7.437 3.262-16.198-.022-7.93-.417-10.311-2.375-14.295-5.484-11.161-16.59-19.445-29.83-22.251-7.376-1.563-10.42-1.642-17.27-.452m87.5 20.854c-11.973 7.436-11.61 22.287.7 28.718 3.971 2.075 11.388 1.771 15.681-.642 6.252-3.514 8.741-8.679 8.27-17.162-.174-3.123-5.142-9.212-9.25-11.336-3.965-2.051-11.764-1.837-15.401.422m-76.684 6.031c-8.113 5.145-10.024 15.203-4.312 22.692C82.028 84.214 85.874 86 92.302 86c6.261 0 10.744-2.479 14.513-8.024 1.918-2.822 2.286-4.434 1.955-8.568-1.036-12.917-14.827-19.563-25.954-12.506m56.137 150.795c-2.517.392-2.539.475-1.86 7.033.801 7.737 2.81 10.239 6.345 7.9 1.707-1.13 2.113-2.595 2.356-8.498.323-7.851.596-7.595-6.841-6.435" fill="#212121" fill-rule="evenodd"/><path fill-opacity=".737" d="M166.698 20.096c-6.594 1.551-14.504 5.874-20.086 10.976L141.22 36l-8.36.021c-4.598.011-11.225.621-14.726 1.354l-6.366 1.334-4.87-3.277c-8.905-5.993-15.12-7.786-26.898-7.76-8.127.018-11.799.497-16.249 2.121-28.745 10.492-37.905 41.709-18.656 63.578L49.17 98h-3.685c-4.722 0-9.749 4.774-11.645 11.06-2.213 7.333-1.605 31.64 1.036 41.44 6.449 23.932 19.997 38.513 36.257 39.023 4.567.143 6.734.865 11.458 3.82 11.111 6.95 31.421 13.595 41.699 13.644l2.791.013-.291 8.25-.29 8.25-9.5 3.739c-12.917 5.084-18 7.548-18 8.729 0 2.151 4.936 2.028 12.288-.307 6.089-1.933 7.712-2.155 7.712-1.055 0 2.17 5.551 1.708 14.237-1.185l7.744-2.579 11.569 2.734c10.663 2.519 11.696 2.607 13.189 1.114 1.493-1.493 1.273-1.774-2.81-3.584-5.945-2.637-4.784-2.564 6.249.391 10.082 2.701 15.307 3.145 16.391 1.391 1.02-1.65-.812-2.509-14.877-6.985-14.37-4.573-14.145-4.352-14.873-14.613l-.441-6.21 6.815-2.07c13.576-4.124 29.956-14.496 37.1-23.493 1.536-1.934 3.463-3.517 4.283-3.517 2.787 0 11.153-4.889 13.849-8.093 7.028-8.353 10.545-20.162 10.545-35.407 0-10.714-1.769-20.226-4.907-26.376-2.044-4.006-8.276-10.113-10.348-10.139-.668-.009-1.87-.43-2.671-.936-1.169-.74-.42-2.015 3.805-6.482 2.892-3.059 6.472-8.15 7.955-11.314 2.393-5.106 2.696-6.937 2.696-16.274 0-9.861-.205-10.938-3.268-17.159-5.523-11.219-17.864-20.882-30.344-23.759-5.295-1.221-18.937-1.202-24.19.035m4.802.977c-16.742 2.809-30.97 14.418-35.105 28.642-2.389 8.215-1.593 20.194 1.829 27.553 5.674 12.203 19.11 21.734 33.855 24.016 19.219 2.975 39.316-7.154 47.571-23.976 2.584-5.265 2.85-6.79 2.85-16.308 0-9.654-.239-10.972-2.964-16.355-5.955-11.766-17.412-20.239-31.362-23.196-7.372-1.562-9.341-1.607-16.674-.376M67.813 30.47c-11.983 3.3-21.436 10.594-26.819 20.692-2.738 5.138-3.432 7.692-3.795 13.968-.766 13.223 4.218 23.664 15.325 32.103 17.485 13.286 44.376 11.14 59.395-4.741 7.488-7.918 10.451-14.964 10.508-24.992.039-6.904-.375-8.891-3.023-14.503-3.588-7.607-10.627-15.063-17.513-18.552-10.308-5.224-23.822-6.8-34.078-3.975m92.207 20.78c-6.369 3.255-8.52 6.681-8.52 13.573 0 6.967 2.839 11.518 8.901 14.272 5.433 2.467 9.252 2.377 14.579-.345 6.423-3.282 8.52-6.666 8.52-13.75 0-4.328-.537-6.589-2.059-8.677C178.892 52.826 171.607 49 167.5 49c-1.692 0-5.058 1.013-7.48 2.25m-73.336 4.199C79.4 58.047 76 62.969 76 70.916c0 4.226.508 5.593 3.234 8.698 8.392 9.557 22.162 8.143 27.609-2.836 1.862-3.754 2.199-5.572 1.642-8.866-.899-5.324-6.099-11.18-11.314-12.743-4.824-1.445-5.718-1.421-10.487.28m35.357 45.69c-7.085 1.174-10.041 3.131-10.041 6.647 0 5.211 12.524 20.532 18.965 23.199 2.445 1.013 3.635 1.009 6.121-.021 3.472-1.438 9.39-8.858 13.304-16.681 5.634-11.26 2.622-14.374-13.705-14.166-5.052.064-11.641.524-14.644 1.022M149 213.977c0 9.397.512 8.873-14.144 14.467-11.258 4.296-15.832 6.995-9.356 5.52 2.2-.502 8.406-2.498 13.791-4.438 5.385-1.939 11.129-3.526 12.766-3.526 1.636 0 9.107 1.585 16.602 3.523 7.495 1.938 13.827 3.324 14.07 3.081.803-.803-3.096-2.362-13.487-5.393-13.396-3.907-14.786-4.868-15.596-10.778-.355-2.592-.646-5.999-.646-7.573 0-2.193-.466-2.86-2-2.86-1.833 0-2 .667-2 7.977m-12.446-1.227c.871 8.755 1.287 10.065 3.411 10.739 1.077.342 2.876.131 3.997-.469 1.771-.948 2.038-2.068 2.038-8.555V207h-10.017l.571 5.75M130 215c0 8.58-.884 9.654-11.109 13.491-22.614 8.486-21.752 9.975 1.408 2.432 8.911-2.902 16.322-5.355 16.469-5.451.147-.096-.413-1.479-1.244-3.073-.831-1.595-1.514-4.775-1.518-7.067-.007-5.131-.792-7.332-2.613-7.332-1.058 0-1.393 1.683-1.393 7m16.5 14.011c-1.629.599-1.166.956 2.5 1.926 2.475.655 6.075 1.61 8 2.121 1.925.512 4.4.897 5.5.855 1.55-.059 1.325-.371-1-1.388-5.849-2.559-13.024-4.239-15-3.514" fill="#212121" fill-rule="evenodd"/><path fill-opacity=".961" d="M165.919 20.833c-7.688 2.007-16.78 7.204-21.286 12.167l-3.177 3.5-9.478.06c-5.213.033-11.839.64-14.725 1.349-5.23 1.285-5.265 1.277-10.554-2.233C98.592 30.295 90.646 28 80.121 28c-19.086 0-34.676 9.227-41.945 24.825-2.243 4.814-2.645 7.041-2.645 14.675 0 7.651.4 9.857 2.665 14.718 1.465 3.145 4.782 7.983 7.371 10.75L50.274 98l-3.387.004c-1.863.002-4.804.868-6.537 1.924-11.909 7.262-10.052 49.398 3.13 71.018 6.973 11.437 15.359 17.04 26.915 17.985 5.155.422 8.002 1.216 10.345 2.884 8.983 6.396 26.622 12.625 41.51 14.659l4.75.649v7.816c0 5.084-.442 8.183-1.265 8.866-.696.578-6.011 2.883-11.81 5.123-11.297 4.364-14.911 6.419-13.598 7.732.452.453 1.241.077 1.751-.836.511-.912 6.292-3.745 12.848-6.295 6.555-2.55 12.382-5.195 12.948-5.877.567-.683 1.164-4.596 1.328-8.697.267-6.678.506-7.455 2.29-7.455 1.727 0 2.135 1.041 3.075 7.833.645 4.661 1.66 8.204 2.508 8.75 1.94 1.249.003 2.459-6.39 3.993-5.653 1.356-23.709 7.801-22.061 7.874.619.028 3.038-.625 5.376-1.45 5.172-1.825 6.073-1.864 5.75-.25-.149.746.959 1.329 2.75 1.446 2.815.184 2.845.149.5-.568l-2.5-.764 3.302-1.734c1.816-.955 7.441-3.299 12.5-5.21 11.591-4.379 12.698-5.636 12.698-14.424 0-5.369.342-6.913 1.643-7.413.904-.346 1.819-.454 2.034-.24.215.215.781 3.871 1.258 8.125s1.249 8.098 1.716 8.543c.467.444 6.249 2.477 12.849 4.516 6.6 2.039 12.9 4.199 14 4.799 1.869 1.019 1.803 1.135-1 1.764l-3 .673 3.191.119c1.755.065 3.457-.313 3.783-.839.864-1.399-3.498-3.345-16.713-7.454-13.088-4.07-12.193-3.081-13.271-14.666l-.612-6.577 5.426-1.215c11.574-2.59 27.478-11.943 36.418-21.418 3.746-3.97 6.617-5.997 10.16-7.174 5.963-1.98 13.19-9.227 16.238-16.28 7.168-16.592 5.824-44.777-2.666-55.908-1.505-1.974-4.698-4.456-7.096-5.517-2.397-1.06-4.358-2.197-4.358-2.527 0-.33 2.054-2.796 4.565-5.48 2.511-2.684 5.998-7.906 7.75-11.604C224.2 71.134 224.5 69.604 224.5 61c0-8.619-.298-10.128-3.209-16.274-9.363-19.766-32.664-29.821-55.372-23.893m1.193.748c-13.315 3.58-23.727 12.145-29.416 24.196-2.816 5.965-3.167 7.682-3.112 15.223.083 11.296 2.709 18.042 10.151 26.08 6.391 6.904 11.802 10.363 20.39 13.036 6.68 2.079 17.724 2.446 24.763.823 21.904-5.049 37.176-26.602 33.082-46.686-4.881-23.944-31.159-39.315-55.858-32.672M65.487 30.799c-10.714 3.705-20.797 12.007-25.3 20.834-10.338 20.264 1.035 44.357 24.703 52.33 8.142 2.743 20.578 2.754 29.409.026 13.009-4.018 24.823-15.993 27.729-28.106 4.584-19.106-7.521-38.631-27.841-44.907-8.23-2.542-21.622-2.625-28.7-.177m54.035 8.374c-2.738.523-5.131 1.103-5.318 1.29-.188.187 1.217 2.381 3.121 4.875 5.27 6.904 7.184 12.86 7.122 22.162-.07 10.616-2.84 17.65-9.99 25.373-13.093 14.142-34.909 18.963-52.68 11.642-3.452-1.422-6.679-2.682-7.171-2.8-1.561-.375-4.564 13.412-5.181 23.785-2.674 44.969 33.57 79.5 83.445 79.5 51.478 0 86.734-36.112 81.2-83.171-1.073-9.123-5.828-27.202-6.986-26.562-14.01 7.747-25.584 10.061-37.443 7.488-19.58-4.249-32.588-16.394-36.221-33.817-1.842-8.834-.78-17.32 3.133-25.043 1.346-2.656 2.447-5.068 2.447-5.362 0-.858-14.046-.396-19.478.64M160.5 50.889c-6.527 2.837-10.433 10.931-8.586 17.791 2.804 10.415 16.101 14.943 25.602 8.717C180.272 75.592 184 68.464 184 65c0-3.492-3.634-10.213-6.74-12.467-2.979-2.161-13.251-3.169-16.76-1.644m-76.282 5.774c-9.207 4.538-10.92 18.203-3.106 24.778 6.929 5.83 16.753 5.389 22.977-1.033 2.775-2.863 3.344-4.275 3.685-9.147.336-4.809.013-6.339-1.955-9.261-4.403-6.533-14.241-8.964-21.601-5.337m37.985 42.452c-14.886 2.478-16.369 8.079-5.735 21.669 9.288 11.871 16.936 15.456 23.532 11.031 4.413-2.96 12.522-14.805 14.451-21.108 1.928-6.299.871-8.961-4.393-11.067-4.527-1.811-18.539-2.075-27.855-.525m89.262.635c2.769 7.142 4.833 19.844 4.915 30.25.112 14.261-2.096 24.111-7.999 35.678l-4.227 8.285 3.673-1.532c4.536-1.892 9.593-6.649 12.684-11.931 7.173-12.258 7.909-39.659 1.412-52.595-2.901-5.777-12.412-13.193-10.458-8.155m-83.625.289c-9.449.853-15.423 3.071-16.379 6.085-.917 2.888 2.853 9.777 9.167 16.755 9.109 10.065 13.844 11.41 20.119 5.716 4.253-3.859 9.78-12.543 11.9-18.695 1.249-3.627 1.24-4.424-.077-6.433-2.26-3.449-11.022-4.664-24.73-3.428m-86.475 1.88c-5.42 3.305-6.868 9.033-6.846 27.081.021 17.291 1.703 25.554 7.57 37.176C48.184 178.251 59.405 187 68.795 187h4.403l-6.982-7.476C58.531 171.295 52.387 160.175 49.35 149c-2.53-9.314-2.362-30.841.319-40.714 1.635-6.023 1.728-7.303.563-7.75-2.633-1.011-5.735-.527-8.867 1.383m98.246 104.818-3.89.4.589 7.018c.807 9.624 3.206 11.973 8.467 8.288 1.959-1.371 2.223-2.442 2.223-9 0-6.486-.225-7.421-1.75-7.275-.963.093-3.5.348-5.639.569m9.889 19.944c-5.203 1.169-8.467 2.564-7.95 3.4.312.505 1.243.919 2.068.919s1.245-.413.932-.919c-.898-1.453 4.819-2.271 7.841-1.122 3.381 1.285 6.001 1.272 2.795-.014-1.273-.51-2.034-1.382-1.691-1.937.637-1.031-.458-1.121-3.995-.327m7.313 1.002c.721.289 1.584.253 1.916-.079.332-.332-.258-.568-1.312-.525-1.165.048-1.402.285-.604.604M161.5 229c1.1.473 2.675.859 3.5.859.945 0 .761-.317-.5-.859-1.1-.473-2.675-.859-3.5-.859-.945 0-.761.317.5.859m-29.5 3.5c-3.575 1.289-6.025 2.379-5.444 2.422 1.338.099 13.444-3.966 13.444-4.514 0-.674-1.199-.36-8 2.092m28.75-.916c1.787.782 3.25 1.87 3.25 2.419 0 .548.45.997 1 .997s1-.473 1-1.051c0-1-6.066-4.04-7.718-3.867-.43.044.681.721 2.468 1.502m9.75-.056c2.2.725 4.9 1.313 6 1.306 1.1-.007-.25-.639-3-1.404-6.256-1.741-8.37-1.672-3 .098m-20.5 1.019c2.475.834 6.525 1.73 9 1.991 3.909.411 3.712.289-1.5-.934-9.925-2.329-12.247-2.656-7.5-1.057m-46.25 4.115c.688.278 1.813.278 2.5 0 .688-.277.125-.504-1.25-.504s-1.937.227-1.25.504" fill="#212121" fill-rule="evenodd"/></svg>