<svg xmlns="http://www.w3.org/2000/svg" width="256" height="256"><path fill-opacity=".016" d="M0 128.004v128.004l128.25-.254 128.25-.254.254-127.75L257.008 0H0v128.004m.485.496c0 70.4.119 99.053.265 63.672.146-35.38.146-92.98 0-128C.604 29.153.485 58.1.485 128.5" fill="#212121" fill-rule="evenodd"/><path fill-opacity=".207" d="M126.5.79c-2.803.574-6.5 4.206-6.5 6.384C120 8.178 119.358 9 118.573 9c-2.757 0-5.802 5.213-5.289 9.056.286 2.145-.073 4.303-.905 5.441-.759 1.037-1.379 2.675-1.379 3.64 0 1.154-2.388 3.009-6.988 5.426C82.14 44.056 69.84 69.255 68.898 104.5c-.203 7.605-.353 8.085-3.04 9.726-8.236 5.028-26.112 36.676-27.543 48.763-.428 3.612-1.088 5.122-2.425 5.546-1.011.321-2.781 1.782-3.933 3.247-7.048 8.959 11.616 31.459 34.618 41.735 3.259 1.456 10.594 3.876 16.301 5.377l10.377 2.73 2.873 7.882C97.707 233.841 99 237.5 99 237.637c0 .136-1.912.386-4.25.556-3.783.273-4.25.581-4.25 2.803 0 2.29.476 2.555 5.794 3.219 6.944.868 11.141 3.15 13.857 7.535 1.372 2.216 2.782 3.25 4.431 3.25 3.536 0 3.618-4.02.157-7.75l-2.088-2.25h4.11c6.17 0 9.444-1.537 9.058-4.252-.299-2.107-.863-2.266-8.978-2.536-5.232-.173-9.057-.767-9.664-1.5-.554-.666-2.106-4.137-3.45-7.712l-2.444-6.5 17.232-.01 17.232-.009 1.578 4.259 1.579 4.26h-4.483c-3.08 0-4.666.474-5.064 1.513-.956 2.49 1.602 4.487 5.745 4.487 6.073 0 11.397 2.645 14.37 7.138 1.955 2.954 3.207 3.906 4.833 3.674 3.19-.454 3.265-3.981.164-7.666l-2.634-3.13 4.333.579c5.876.785 10.072-.887 9.651-3.847-.302-2.132-.785-2.253-9.319-2.351l-9-.103-1.655-3.397c-3.605-7.4-3.572-7.492 3.558-9.865 16.092-5.355 30.197-19.307 36.679-36.282 1.229-3.219 2.812-5.75 3.597-5.75 5.369 0 15.105-8.996 17.16-15.858 3.732-12.455-1.887-33.824-11.522-43.824-3.788-3.931-4.071-4.643-4.73-11.915-1.582-17.463-6.257-34.824-12.9-47.903-5.259-10.356-16.516-21.891-24.908-25.523-4.476-1.938-5.604-2.859-5.181-4.234.298-.966.026-4.238-.604-7.271C144.768 8.75 134.286-.806 126.5.79" fill="#212121" fill-rule="evenodd"/><path fill-opacity=".337" d="M122.455 3.455C121.105 4.805 120 6.532 120 7.294s-1.134 1.902-2.52 2.533c-3.004 1.369-4.639 5.126-3.882 8.923.315 1.582-.118 4.024-1.019 5.75-.862 1.65-1.575 3.45-1.586 4-.011.55-2.787 2.329-6.17 3.954-7.409 3.559-16.327 11.585-21.454 19.309-7.959 11.991-12.86 29.527-14.046 50.259-.626 10.936-.634 10.964-3.725 12.788C57.282 119.717 38 155.46 38 165.968c0 2.028-.497 3.032-1.5 3.032-.825 0-2.4.9-3.5 2-6.478 6.478 3.503 23.533 20.314 34.709 9.141 6.077 20.126 10.774 31.201 13.34l9.016 2.089 2.734 7.721c1.504 4.246 2.735 8.265 2.735 8.931 0 .767-1.645 1.21-4.5 1.21-3.749 0-4.5.316-4.5 1.893 0 2.216 1.868 3.107 6.517 3.107 5.34 0 8.689 1.708 13.097 6.679 2.854 3.217 4.616 4.447 5.75 4.011 2.345-.899 2.021-3.496-.915-7.346L111.898 244h5.929c3.97 0 6.327-.481 7.137-1.456 2.16-2.603.081-3.544-7.832-3.544-4.661 0-8.401-.498-9.385-1.25-1.167-.892-6.747-13.395-6.747-15.119 0-.072 6.638-.146 14.75-.165 8.112-.019 15.903-.344 17.313-.722 2.349-.631 2.703-.295 4.254 4.034.931 2.597 1.691 5.06 1.688 5.472-.003.412-2.255.75-5.005.75s-5 .418-5 .929c0 2.141 3.367 4.071 7.104 4.071 5.829 0 10.46 2.346 13.608 6.895 4.918 7.108 9.655 4.28 4.89-2.92l-2.63-3.975h5.814c5.713 0 8.214-1.127 8.214-3.7 0-.976-2.381-1.3-9.551-1.3h-9.551l-1.534-3.672c-2.992-7.159-2.562-8.244 4.248-10.738 16.365-5.993 27.805-16.869 34.891-33.169 3.12-7.176 3.467-7.566 9.382-10.522 12.677-6.334 16.632-17.739 12.183-35.133-1.793-7.01-6.305-17.136-9.293-20.853-.701-.872-2.287-2.126-3.525-2.785-1.444-.769-2.25-2.124-2.25-3.785 0-1.422-.696-7.369-1.547-13.215-3.803-26.131-11.723-45.496-23.321-57.025-4.29-4.265-8.854-7.642-12.887-9.537L147 28.632V23.43c0-14.552-16.523-27.998-24.545-19.975m3.51 4.087c-1.062 1.28-.898 2.057.966 4.578 2.71 3.666 2.391 4.205-1.599 2.699-6.36-2.4-9.069 2.712-3.082 5.813l3.25 1.684-3.206 1.092c-3.11 1.059-6.107 3.264-5.227 3.845.238.157 6.001.126 12.807-.07l12.374-.356-.635-4.63c-.762-5.561-4.512-11.555-8.903-14.232-3.877-2.364-5.072-2.439-6.745-.423m-8.714 25.941c-11.502 3.233-21.314 9.944-27.774 18.997-8.896 12.466-12.77 25.239-14.611 48.167-1.127 14.039-1.118 14.165 1.109 16.5 4.886 5.122 6.464 10.552 6.495 22.353.028 10.335-.148 11.321-2.916 16.319-3.477 6.275-7.69 10.202-14.841 13.829-4.214 2.138-7.247 2.782-15.83 3.357-11.224.753-12.883 1.216-12.883 3.594 0 2.858 4.271 9.807 9.36 15.232 10.088 10.751 25.932 19.013 43.902 22.891 11.674 2.52 42.461 2.53 51.738.018 10.719-2.903 19.943-8.003 26.708-14.768 14.392-14.392 20.21-35.635 19.001-69.376-1.895-52.888-13.491-82.966-36.341-94.259-6.84-3.38-8.223-3.693-17.645-3.998-6.897-.223-11.931.149-15.472 1.144m.831 47.918c-1.593 1.919-1.075 4.574 1.168 5.987 2.565 1.615 5.25-.429 5.25-3.997 0-2.365-.47-2.946-2.586-3.192-1.422-.165-3.146.376-3.832 1.202M158.2 81.2c-2.479 2.479-.651 6.8 2.878 6.8 2.539 0 4.229-2.639 3.515-5.487-.691-2.751-4.228-3.478-6.393-1.313M136 94.55c-3.025 1.233-5.631 2.888-5.791 3.677-.165.818 2.152 3.058 5.384 5.204 6.339 4.208 6.637 4.18 14.195-1.357 2.359-1.728 4.015-3.583 3.682-4.123-.545-.881-4.402-2.771-9.97-4.884-1.284-.487-3.97.044-7.5 1.483m-72.36 30.042c-7.795 9.932-18.327 30.391-20.109 39.066-.596 2.896-.402 3.211 2.339 3.813 4.495.988 14.064-1.144 19.095-4.254 9.851-6.088 14.267-16.569 12.21-28.981-1.137-6.863-5.37-15.236-7.703-15.236-.793 0-3.418 2.516-5.832 5.592m129.038 6.975c.509 9.972-.589 26.893-2.289 35.284l-.679 3.35 3.093-1.599c1.702-.88 4.343-3.238 5.871-5.241 5.996-7.861 3.748-27.37-4.587-39.794l-1.967-2.933.558 10.933" fill="#212121" fill-rule="evenodd"/><path fill-opacity=".576" d="M123.723 3.003C122.225 4.181 121 5.734 121 6.454c0 .72-1.611 2.538-3.581 4.04-3.211 2.449-3.552 3.157-3.311 6.868.149 2.276-.228 5.263-.838 6.638-.609 1.375-1.322 3.203-1.585 4.062-.263.859-3.535 3.067-7.273 4.907-4.435 2.183-9.076 5.634-13.364 9.938-13.064 13.113-19.57 31.608-21.577 61.343-.469 6.956-1.027 9.75-1.948 9.75-3.201 0-14 14.975-21.307 29.549-4.486 8.946-8.736 21.801-7.741 23.411.355.574-.461 1.464-1.814 1.979-5.524 2.1-6.961 7.648-3.772 14.561 7.448 16.147 28.581 30.001 54.611 35.801l6 1.337 3.211 8.431c1.766 4.637 3.229 8.769 3.25 9.181.022.412-1.959.75-4.402.75s-4.761.518-5.153 1.152c-1.103 1.785 2.561 3.848 6.835 3.848 5.059 0 8.778 2.019 12.934 7.022 2.435 2.931 3.875 3.896 5.108 3.423 2.508-.963 2.115-2.922-1.387-6.91L110.793 244h5.522c6.809 0 8.685-.671 8.685-3.107 0-1.706-.824-1.893-8.345-1.893-6.711 0-8.638-.343-9.84-1.75-1.601-1.874-6.34-14.075-5.699-14.674.211-.197 8.138-.531 17.616-.741l17.232-.383 1.518 3.794c2.43 6.074 2.122 6.754-3.055 6.754-3.796 0-4.517.294-4.241 1.729.249 1.291 2.023 2.006 7.009 2.824 6.458 1.059 9.057 2.297 11.439 5.447 4.624 6.115 5.095 6.47 6.751 5.095 2.221-1.843 2.07-2.507-1.489-6.56-1.707-1.944-2.719-3.573-2.25-3.62.47-.047 3.155-.017 5.966.066 3.571.106 5.609-.345 6.76-1.495 2.732-2.733.936-3.486-8.309-3.486-5.865 0-9.147-.419-9.799-1.25-1.503-1.916-4.22-10.664-3.447-11.101.376-.212 2.483-.95 4.683-1.639 15.273-4.783 27.883-15.723 35.009-30.371 2.47-5.077 4.491-9.755 4.491-10.395 0-.64 1.827-1.711 4.059-2.38 5.438-1.629 12.31-7.853 14.461-13.098 2.607-6.358 2.236-17.381-.919-27.266-2.782-8.718-8.708-18.454-11.71-19.239-1.04-.272-1.891-.869-1.891-1.326 0-.458-.691-6.143-1.536-12.634-2.736-21.014-7.66-37.17-15.071-49.442-4.354-7.212-14.663-16.865-21.671-20.294l-5.454-2.668-.523-5.771C145.978 14.669 142.55 8.879 135 3.289c-.825-.61-3.087-1.407-5.027-1.769-2.758-.515-4.121-.192-6.25 1.483m1.574 4.665c-.352.918.04 2.854.872 4.303l1.512 2.635-4.591-.053c-3.91-.045-4.59.237-4.59 1.907 0 1.113 1.468 2.95 3.398 4.25 3.245 2.187 3.287 2.29.924 2.29-2.396 0-7.387 4.102-6.306 5.183.294.294 2.886.106 5.76-.418 2.873-.524 8.486-.789 12.474-.589l7.25.363v-3.954c0-2.174-.948-5.912-2.107-8.306-3.42-7.065-12.907-12.012-14.596-7.611M121 32.114C107.623 34.256 93.313 44.496 85.523 57.5c-6.737 11.247-11.505 31.662-11.517 49.317-.005 7.318.292 8.707 2.474 11.568 4.145 5.435 5.784 11.319 5.881 21.115.073 7.354-.327 9.915-2.184 14-5.278 11.611-16.318 18.426-31.068 19.178-14.751.752-15.29 1.18-11.581 9.184C44.435 196.77 65.012 209.883 90 215.3c12.672 2.747 39.004 2.932 49.472.347 34.114-8.423 49.473-35.4 47.91-84.147-1.695-52.85-13.994-84.936-36.613-95.521-10.055-4.705-18.041-5.742-29.769-3.865m-1.837 48.764c-.736.467-1.186 1.922-1 3.235.464 3.285 5.356 3.977 6.334.897 1.135-3.576-2.171-6.137-5.334-4.132m39.41.691c-2.108 2.109-.362 5.431 2.855 5.431 2.792 0 3.977-2.374 2.533-5.072-1.25-2.336-3.276-2.471-5.388-.359m-23.322 13.734c-2.887 1.208-5.241 2.647-5.232 3.197.022 1.305 9.506 7.5 11.481 7.5 2.069 0 11.46-6.225 11.482-7.611.016-.962-9.996-5.482-11.821-5.336-.364.029-3.023 1.041-5.91 2.25m-69.123 25.56c-9.863 10.558-24.763 40.433-22.765 45.641.556 1.449 1.723 1.659 7.399 1.33 7.913-.458 14.289-3.218 19.522-8.451 5.225-5.225 7.09-9.785 7.518-18.383.429-8.625-2.09-17.043-6.278-20.978l-2.456-2.307-2.94 3.148m125.852 15.765c-.018 14.36-.914 25.277-2.64 32.154l-.63 2.509 4.288-2.396c2.358-1.317 5.399-4.069 6.757-6.115 4.891-7.364 3.85-21.995-2.457-34.553-4.923-9.801-5.296-9.211-5.318 8.401" fill="#212121" fill-rule="evenodd"/></svg>